<?xml version="1.0" standalone="no"?>
<!DOCTYPE svg PUBLIC "-//W3C//DTD SVG 20010904//EN"
 "http://www.w3.org/TR/2001/REC-SVG-20010904/DTD/svg10.dtd">
<svg version="1.0" xmlns="http://www.w3.org/2000/svg"
 width="1806.000000pt" height="1807.000000pt" viewBox="0 0 1806.000000 1807.000000"
 preserveAspectRatio="xMidYMid meet">

<g transform="translate(0.000000,1807.000000) scale(0.100000,-0.100000)"
fill="#000000" stroke="none">
<path d="M0 9035 l0 -9035 9030 0 9030 0 0 9035 0 9035 -9030 0 -9030 0 0
-9035z m4168 7125 c145 -16 199 -29 287 -70 100 -46 206 -130 311 -246 96
-105 150 -189 204 -313 56 -130 76 -195 90 -299 16 -114 9 -201 -25 -317 -44
-151 -103 -261 -191 -354 -92 -98 -190 -165 -383 -262 -205 -102 -335 -192
-468 -324 -264 -261 -447 -661 -509 -1115 -22 -157 -25 -546 -6 -665 42 -256
112 -536 156 -624 l34 -66 6 80 c9 102 34 288 52 385 8 41 14 91 14 111 0 46
43 299 75 441 47 208 166 531 276 751 200 396 630 877 1044 1167 205 144 647
339 835 369 242 39 582 -31 824 -169 90 -51 235 -182 271 -245 48 -81 93 -245
110 -396 14 -126 -37 -427 -93 -551 -51 -112 -128 -222 -193 -276 -121 -98
-282 -174 -414 -193 -33 -5 -164 -16 -291 -24 -506 -33 -753 -98 -1093 -288
-341 -190 -566 -447 -671 -767 -26 -78 -60 -232 -60 -264 0 -6 29 43 64 110
154 294 280 434 573 638 164 114 549 259 838 316 363 70 603 83 775 41 129
-32 249 -75 313 -112 124 -74 248 -192 292 -280 164 -322 151 -657 -36 -972
-64 -107 -236 -278 -320 -316 -92 -42 -243 -65 -389 -58 -139 6 -238 31 -371
92 -139 64 -334 115 -514 135 -134 15 -398 12 -478 -5 -194 -41 -511 -210
-645 -343 -35 -36 -107 -175 -93 -180 4 -1 50 4 102 13 235 40 663 28 918 -25
270 -55 430 -112 661 -232 346 -179 517 -341 659 -625 97 -194 136 -353 135
-548 -1 -205 -59 -534 -138 -781 -19 -60 -51 -165 -70 -234 -20 -69 -43 -147
-52 -173 -9 -26 -15 -50 -13 -52 2 -2 54 13 114 34 180 62 377 169 527 287
232 183 369 299 428 361 244 258 293 314 490 563 90 113 166 207 169 210 3 3
33 39 66 80 223 280 419 477 690 695 126 101 290 202 410 253 136 57 359 140
421 156 134 34 367 45 539 26 102 -12 342 -67 351 -81 3 -5 14 -9 24 -9 11 0
41 -12 67 -27 182 -100 313 -239 388 -408 57 -130 77 -220 82 -378 6 -166 -3
-245 -48 -404 -65 -231 -174 -404 -368 -580 -106 -97 -216 -181 -225 -172 -2
2 0 33 6 69 13 90 -12 228 -58 318 -69 136 -202 262 -357 336 -127 61 -225 66
-387 20 -153 -44 -455 -237 -755 -483 -115 -95 -298 -239 -405 -320 -376 -282
-583 -406 -906 -542 l-151 -63 111 -32 c298 -86 552 -202 777 -353 223 -149
366 -290 483 -474 47 -73 137 -303 261 -667 126 -371 159 -435 290 -566 72
-73 117 -109 160 -130 58 -28 65 -29 210 -29 141 0 155 2 230 29 99 36 123 53
180 124 25 31 50 62 55 69 6 7 10 15 10 19 0 4 13 35 29 68 16 34 40 105 54
158 107 402 328 761 545 886 162 93 347 159 484 172 181 17 403 -23 570 -103
100 -48 266 -167 335 -238 l42 -44 -72 -37 c-191 -99 -353 -293 -426 -513 -79
-238 -79 -447 -1 -645 27 -69 117 -207 176 -270 90 -96 356 -256 497 -299 222
-67 516 -88 782 -55 229 29 387 74 565 164 114 57 190 112 290 211 175 171
251 288 316 483 62 183 67 252 30 423 -46 217 -121 393 -228 536 -71 96 -262
275 -363 341 -133 87 -527 375 -673 491 -281 225 -533 534 -636 782 -102 245
-124 437 -81 713 26 165 111 359 245 559 104 155 176 240 293 342 211 185 615
413 857 483 98 28 214 58 255 67 22 4 51 12 65 17 14 5 57 14 95 21 39 6 111
20 160 31 166 34 310 52 585 69 85 6 167 13 181 16 58 13 515 -27 699 -61 105
-20 264 -60 305 -78 16 -8 46 -20 65 -27 69 -28 294 -141 339 -171 76 -52 225
-184 280 -250 63 -74 80 -107 116 -218 38 -121 44 -244 16 -378 -36 -172 -85
-255 -243 -408 -117 -114 -245 -176 -435 -209 -157 -27 -360 7 -528 90 -87 43
-194 125 -216 166 -15 28 -2 56 28 64 75 18 214 140 254 222 34 68 34 195 0
271 -29 63 -110 141 -191 182 -186 94 -570 117 -766 46 -87 -32 -199 -101
-256 -157 -54 -54 -134 -174 -154 -232 -61 -172 -20 -343 110 -465 83 -77 204
-156 426 -275 247 -133 261 -141 365 -213 224 -155 450 -375 626 -611 l79
-106 108 -27 c137 -35 220 -77 368 -188 228 -170 419 -406 578 -713 129 -250
233 -560 243 -726 7 -113 4 -114 -93 -42 -38 28 -107 71 -153 97 -84 45 -273
133 -277 129 -2 -1 4 -33 12 -70 14 -70 37 -259 49 -404 8 -105 -7 -246 -51
-463 -52 -259 -136 -464 -253 -620 -64 -86 -220 -250 -238 -250 -6 0 -14 23
-18 53 -26 213 -96 438 -172 554 -14 22 -17 20 -75 -69 -211 -321 -456 -550
-726 -680 -101 -47 -319 -121 -422 -142 -84 -17 -236 -23 -233 -10 0 5 22 91
48 192 49 188 51 221 16 202 -30 -16 -272 -108 -396 -150 -236 -81 -757 -176
-1100 -200 -266 -18 -676 -29 -795 -20 -409 30 -961 180 -1312 356 -276 138
-469 289 -646 501 l-85 103 -146 -149 c-175 -178 -244 -227 -496 -354 -220
-111 -331 -154 -543 -208 -227 -58 -369 -73 -647 -66 -352 9 -673 52 -1012
137 -232 58 -334 104 -478 212 -198 149 -251 204 -329 336 -93 160 -146 283
-169 393 -20 101 -21 114 -9 265 11 128 23 203 67 384 93 393 90 370 90 620 0
218 -1 226 -24 275 -14 27 -57 81 -95 120 -65 65 -77 73 -151 95 -66 20 -107
25 -237 28 -146 3 -160 2 -191 -17 -19 -11 -39 -33 -46 -48 -37 -80 -204 -508
-281 -718 -48 -132 -206 -555 -350 -940 -144 -385 -293 -785 -332 -890 -39
-104 -76 -195 -82 -201 -17 -18 -2696 -31 -2696 -14 0 20 163 441 255 660 92
218 141 343 209 535 26 72 53 144 60 160 7 17 19 48 26 70 7 22 18 54 25 70
168 394 273 660 399 1010 48 132 92 251 97 265 23 53 209 551 249 665 24 66
53 149 66 185 12 36 32 90 44 120 12 30 27 73 34 95 7 22 36 101 63 175 82
221 129 366 168 525 51 208 65 295 65 406 0 89 -3 102 -31 155 -17 33 -42 71
-56 86 -27 28 -123 79 -183 96 -115 34 -456 40 -590 12 -180 -38 -347 -110
-463 -199 -37 -28 -69 -51 -73 -51 -9 0 -314 -306 -314 -315 0 -3 -19 -32 -43
-63 -129 -169 -221 -356 -318 -640 -83 -247 -92 -302 -86 -497 5 -171 18 -235
65 -337 48 -101 202 -240 298 -268 42 -13 174 -10 207 4 15 7 17 1 17 -67 0
-67 -4 -83 -39 -153 -142 -282 -435 -456 -827 -489 -148 -13 -357 28 -474 92
-105 57 -246 169 -307 244 -200 243 -306 453 -343 682 -17 103 -12 305 9 415
25 126 69 259 116 348 129 240 491 657 745 855 274 214 395 300 560 399 52 31
145 88 205 125 61 37 124 74 140 82 17 7 46 23 65 35 73 43 459 232 565 276
60 24 159 61 218 82 l109 37 -53 34 c-138 88 -492 420 -626 586 -70 86 -284
409 -355 533 -59 105 -170 334 -229 477 -97 232 -177 604 -210 969 -12 145 -7
493 10 639 12 108 53 313 81 410 11 39 27 93 35 120 13 48 51 159 94 276 51
140 187 425 241 505 136 200 398 500 576 658 146 131 346 252 489 296 22 7 49
17 60 21 46 20 182 59 253 73 148 29 173 30 310 16z"/>
</g>
</svg>
