<svg id="Layer_1" data-name="Layer 1" xmlns="http://www.w3.org/2000/svg" viewBox="0 0 794.83 239.57"><defs><style>.cls-1{fill:#fff;}</style></defs><path class="cls-1" d="M330.7,185.9a15.26,15.26,0,0,0,1.77,2,17.66,17.66,0,0,0,13.71,3.77c7.24-.85,13.25-7.12,14-13.37.46-3.85,0-7.5-2.38-10.63a25.2,25.2,0,0,0-8-6.81c-8.85-4.92-18.46-6-28.35-5.62a100.28,100.28,0,0,0-15.92,1.9c-7.07,1.46-13.91,3.42-20.2,7.15a39.15,39.15,0,0,0-14.78,14.76,27.54,27.54,0,0,0-3.41,9.28,24.93,24.93,0,0,0,3.42,17.19,45.13,45.13,0,0,0,10.89,12.27c4.52,3.46,9.13,6.8,13.79,10.08,5.3,3.73,9.51,8.29,11.46,14.59,1,3.17,1.91,6.38,1.06,9.78a24.78,24.78,0,0,1-13.14,16.48c-6.75,3.55-14.06,4.14-21.56,3.4a27.78,27.78,0,0,1-14.16-5.66,15.3,15.3,0,0,1-2.61-2.54c-3.89-4.69-4.83-10-3.35-15.86a18.89,18.89,0,0,1,8-11.59c.78-.52,1.62-.93,2.55-1.46a15,15,0,0,0-1.12-1.27c-6.64-6.18-16.1-9.19-26.07-4a18.85,18.85,0,0,0-6.51,5.39,40.91,40.91,0,0,0-6.24,13.15,36.64,36.64,0,0,1-1.66,4.57,8.17,8.17,0,0,1-5.35,4.9c-4.71,1.31-8.93,1-12.43-2.95a24.15,24.15,0,0,1-4.51-8.34c-1.54-4.41-3-8.85-4.72-13.2a27.62,27.62,0,0,0-3-5.29,28.71,28.71,0,0,0-7.47-7.11A54.52,54.52,0,0,0,168,213.17c-.62-.18-1.22-.43-1.87-.66.18-.26.24-.4.34-.45.6-.3,1.21-.6,1.84-.84a59.47,59.47,0,0,0,14.53-8.09c5-3.81,9.89-7.83,14.95-11.59,3.2-2.38,6.57-4.55,10-6.61a11.86,11.86,0,0,1,7.62-1.72c4.16.52,10.43,4.83,11.34,10.65.24,1.56.21,3.16.32,5,.69-.45,1.36-.93,2-1.44a40.17,40.17,0,0,0,4.2-3.84c6.06-6.93,8.15-14.9,5.62-23.81A15.81,15.81,0,0,0,229.16,159a30.26,30.26,0,0,0-18.77-1.32,40.74,40.74,0,0,0-14.94,6.73,71.69,71.69,0,0,0-8.93,7.67c-4.35,4.65-8.39,9.6-12.42,14.53-4.73,5.78-9.56,11.43-15.49,16.06-4.41,3.45-8.92,6.65-14.35,8.27a13.15,13.15,0,0,1-1.4.22c.28-1,.51-1.78.73-2.56,1.63-5.86,3.81-11.6,4.42-17.72a29.87,29.87,0,0,0,.4-6.26c-1.11-10-6.19-17.22-15.11-21.94-10.59-5.6-21.77-7.2-33.53-5.63-.51.06-1,.05-1.65.08a7.09,7.09,0,0,1,3.25-4.87c5.21-3.78,10.78-6.44,17.5-6.05,4.84.29,9.63.77,14,2.9a20.42,20.42,0,0,0,14.13,1.4,9.16,9.16,0,0,0,3.42-1.7C157,143.51,161,134,156.24,124.3a12.48,12.48,0,0,0-2.48-3.42c-4.87-4.71-10.87-6.14-17.43-5.62A65.12,65.12,0,0,0,114,121.13a23.75,23.75,0,0,0-2.83,1.58,31.48,31.48,0,0,0-12.3,13.74,5.63,5.63,0,0,1-.67,1,6.66,6.66,0,0,1,.18-2.31c1.78-7.64,6.32-13.19,12.93-17.23a45.6,45.6,0,0,1,22-6.51,64,64,0,0,0,7.7-.64c4.52-.76,8.41-2.82,10.81-6.87A22.7,22.7,0,0,0,153.34,83a8.67,8.67,0,0,0-1.83-2.65c-3.87-4.09-8.85-5.88-14.27-6.69a18.07,18.07,0,0,0-7.88.21,50.88,50.88,0,0,0-14.79,6.63c-13.26,9.18-22.77,21.17-27.14,36.91-2,7-2.58,14.26-3.54,21.45a5.5,5.5,0,0,1-.27,1.17h-.47c-.5-1.52-1.07-3-1.49-4.57-3-11-3.12-22,1-32.77,3.17-8.35,8.54-14.7,16.73-18.5,1-.49,2.07-1,3.08-1.57a17.42,17.42,0,0,0,6-4.84c2.74-3.79,4.37-7.93,3.63-12.73a24.89,24.89,0,0,0-6.89-13.54A17.19,17.19,0,0,0,90.13,46a31.28,31.28,0,0,0-14.81,5.27,55.41,55.41,0,0,0-17.58,20,66.31,66.31,0,0,0-7.55,25.56A69.7,69.7,0,0,0,62.29,142a56.93,56.93,0,0,0,10.49,12.36l7,6.05c-.31.15-.64.34-1,.48-2.33.91-4.72,1.7-7,2.74a145.27,145.27,0,0,0-25.79,15,70.78,70.78,0,0,0-17.22,17.69A24.28,24.28,0,0,0,25.85,219a28.49,28.49,0,0,0,7.6,11.17,17,17,0,0,0,8.71,4.58A23,23,0,0,0,57.86,232a15.61,15.61,0,0,0,6.49-7.1,5.43,5.43,0,0,0,.38-4.16c-3.16.88-5.65-.19-7.89-2.25a11.24,11.24,0,0,1-3.42-6.11,21.28,21.28,0,0,1,.44-11c.51-1.62,1-3.24,1.58-4.83a40.47,40.47,0,0,1,6.12-11.65A38.68,38.68,0,0,1,72,175.21c6-3.51,12.53-3.81,19.14-2.57,4.1.77,6.54,3.54,5.87,7.88a73.84,73.84,0,0,1-2.42,11.09c-2.25,7-4.76,13.84-7.34,20.69q-8.85,23.5-17.87,46.93c-2.48,6.45-5.11,12.84-7.66,19.27-.2.52-.33,1.08-.56,1.84h2.5l50.48-.29c1.94,0,2,0,2.62-1.8,4-10.66,7.93-21.34,11.94-32,2.7-7.17,5.5-14.3,8.2-21.46a3.2,3.2,0,0,1,3.19-2.31,19.43,19.43,0,0,1,6.83.65,8.08,8.08,0,0,1,5.71,7.13,38,38,0,0,1-1,11.5,62.57,62.57,0,0,0-1.5,6.33,46.06,46.06,0,0,0-.85,9.07c.26,4.75,2.53,8.93,5.59,12.41a25.41,25.41,0,0,0,12.69,8.07,97.23,97.23,0,0,0,18.64,3.07c5.62.37,11.26.39,16.77-1.13,9-2.51,17.33-6.28,23.46-13.75a6.31,6.31,0,0,1,.84-.71c.51.59,1,1.07,1.38,1.59a35.8,35.8,0,0,0,9.89,8.66,60.43,60.43,0,0,0,14.18,6c6.26,1.88,12.61,3.39,19.17,3.27,7-.12,14-.22,20.88-1.4,6.42-1.09,12.84-2.1,18.86-4.77,1.33-.59,2.75-1,4.54-1.59-.7,3-1.32,5.55-2,8.39a29.54,29.54,0,0,0,3.26-.18c7.35-1.26,13.86-4.26,19-9.74,2-2.11,3.69-4.5,5.5-6.78a26.19,26.19,0,0,0,1.56-2.28c2.6,3.93,3.28,8.2,4,12.48a3.69,3.69,0,0,0,.79-.27,8.93,8.93,0,0,0,1.05-1,28,28,0,0,0,7.78-13.81c1.38-5.51,2.08-11,1.08-16.71-.26-1.44-.45-2.9-.72-4.67a36.79,36.79,0,0,1,10.47,5.76,8.74,8.74,0,0,0,.14-1.91,57,57,0,0,0-1.31-5.93c-2.54-8.16-6.45-15.53-12.8-21.39-3.15-2.9-6.57-5.5-11-6.15a3.66,3.66,0,0,1-2.24-1.58c-2.36-2.8-4.66-5.65-7.2-8.27-4.16-4.29-9.3-7.2-14.53-10a53.22,53.22,0,0,1-6.88-4.31c-3.35-2.5-4.53-6.1-3.31-9.7a13.3,13.3,0,0,1,4.71-6.48c3.35-2.5,7.22-3,11.21-2.84a17.89,17.89,0,0,1,9.15,2.32c4.18,2.58,5.17,8,.61,11.51A31.41,31.41,0,0,1,330.7,185.9ZM819.07,171a24.48,24.48,0,0,0-2.7-.29h-15c-1.86,0-1.93,0-2.54,1.92-1,3.11-2,6.23-2.94,9.35-.78,2.49-1.54,5-2.33,7.45-.15.45-.43.85-.58,1.29-.39,1.14-.78,2.28-1.11,3.44-.56,1.91-1,3.87-1.61,5.76-1.79,5.31-3.64,10.6-5,16a32.53,32.53,0,0,1-1.7,4.36l-.4-.09c-.18-3.35-.43-6.69-.53-10-.14-4.44-.12-8.89-.25-13.33-.1-3.32-.35-6.64-.51-10-.22-4.57-.42-9.14-.25-13.71.08-2.11-.3-2.44-2.48-2.51-1.83-.06-3.67,0-5.5-.1-2.16-.08-4.32-.27-6.48-.3-1.48,0-2.21.52-2.49,1.87a65.5,65.5,0,0,1-2.1,7c-.59,1.73-1.06,3.55-1.53,5.33-.89,3.35-2.12,6.63-3.13,10-1.13,3.7-2.68,7.26-3.4,11.09a3.2,3.2,0,0,1-.25,1c-1.7,2.87-2.11,6.18-3.16,9.26-.8,2.34-1.48,4.73-2.27,7.07-.74,2.17-1.62,4.28-2.3,6.46-.62,2-1,4-1.58,6-.4,1.33-1.07,2.59-1.46,3.92s-.53,2.87-1,4.25c-1.16,3.68-2.44,7.32-3.62,11-.62,1.9-1.1,3.85-1.7,5.75-.74,2.36-1.55,4.7-2.31,7.05-.28.88-.44,1.81-.77,2.67-.48,1.25-1.19,2.41-1.56,3.68-.86,3-1.58,6.05-2.39,9.18a3.16,3.16,0,0,0,1,.32h19.58c1-3.52,2-6.79,3-10,1.23-3.88,2.55-7.74,3.83-11.61.19-.58.43-1.14.59-1.72a22.28,22.28,0,0,1,1.07-4c1.36-2.75,1.7-5.78,2.75-8.61s1.36-6.11,2.83-8.93a14.42,14.42,0,0,0,.94-2.85c.32-1.17.58-2.36.87-3.55h.5c.91,17,.69,34,2,51.07a8.9,8.9,0,0,0,1.36.19h6.92c1.61,0,3.24.19,4.85.13s2.27-.63,2.7-2.21a15.08,15.08,0,0,1,.8-3.31c1.39-2.5,1.61-5.36,2.68-8a27.54,27.54,0,0,0,.9-2.65c1.12-3.77,2.21-7.54,3.34-11.31.86-2.88,1.77-5.76,2.65-8.63s1.84-6,2.75-8.92c.76-2.48,1.5-5,2.29-7.46a27.4,27.4,0,0,0,1-2.8,36.81,36.81,0,0,1,1.22-4.61c1.26-3.82,2.4-7.68,3.57-11.53q.9-3,1.74-5.92c.75-2.62,1.43-5.26,2.22-7.87.56-1.85,1.27-3.66,1.88-5.5.17-.51.07-1.14.32-1.57,1.79-3,2-6.52,3.25-9.69.29-.72.05-1.64.32-2.37C816.91,176.38,818,173.79,819.07,171ZM485,212.12c4.39-14.91,8.66-29.38,12.95-44-.63-.06-1.16-.15-1.68-.17l-17.09-.49c-2.47-.07-2.5-.08-3.26,2.33q-4.23,13.36-8.44,26.74l-26.61,83.88c-.19.62-.3,1.26-.5,2.16,1.29.13,2.34.3,3.4.32q7.83.15,15.66.24c2.53,0,2.54,0,3.27-2.35q5.42-17.25,10.8-34.52c1.27-4.06,2.53-8.13,3.81-12.22h11.32c-5.24,16.43-10.41,32.64-15.65,49h20.36q18.44-57.47,36.88-115c-3.72-.12-7.1-.27-10.49-.33-2.78-.06-5.56,0-8.34,0a1.49,1.49,0,0,0-1.72,1.2s0,.07,0,.1c-.07.33-.22.64-.32,1q-5.14,16.16-10.3,32.33c-1,3-1.9,5.93-2.86,8.9-.23.71-.47,1.42-1.48,1.36ZM661.22,169.7h-19c-.64,0-1.22.09-1.46.82-1,3.19-2.19,6.33-3,9.57q-1.86,7.17-4.35,14.13c-.38,1.07-.81,2.12-1.12,3.21-.58,2-1,4.11-1.64,6.15-.38,1.33-1,2.61-1.35,3.95-.8,2.73-1.42,5.51-2.31,8.21-1.24,3.74-2.57,7.46-3.63,11.27-.82,2.94-1.75,5.87-2.85,8.72-1,2.68-1.14,5.64-2.63,8.18a6.47,6.47,0,0,0-.9,2.4,39.54,39.54,0,0,1-2.28,8.55,91.21,91.21,0,0,0-3.57,11.66,30.48,30.48,0,0,1-1,3.38c-.47,1.31-1.13,2.55-1.57,3.86-.74,2.25-1.4,4.53-2,6.82a20.61,20.61,0,0,0-.37,2.2c.51.06.84.14,1.17.14l17.3.1c1.38,0,1.82-.35,2.26-1.83.73-2.5,1.41-5,2.12-7.53s1.45-5.17,2.21-7.74c.69-2.3,1.45-4.57,2.15-6.86s1.14-4.82,2.42-6.93a51,51,0,0,1,3.43-4.58l.54.16c.8,11.69,1.6,23.38,2.41,35.14l21.89.6v-2c0-.65-.33-1.43-.36-2.16-.09-1.8.06-3.62-.15-5.4C663,269,663.44,264,662.7,259c-.42-2.84.26-5.82-.11-8.76-.26-2-.15-4-.29-6a42.06,42.06,0,0,1-.47-5,56,56,0,0,0-.27-9.16c-.3-2.86-.16-5.77-.34-8.64a4.09,4.09,0,0,1,1.12-3.28c1.34-1.49,2.54-3.11,3.77-4.69.44-.58.77-1.25,1.23-1.81,1.73-2.12,3.53-4.17,5.24-6.3,2.27-2.83,4.47-5.71,6.72-8.55s4.63-5.72,6.92-8.6c1.71-2.16,3.37-4.37,5.06-6.55l4.67-6c.78-1,1.57-2,2.34-3,.63-.81,1.24-1.63,2-2.62a7,7,0,0,0-1.09-.28c-6.1-.14-12.21-.23-18.3-.44a3.41,3.41,0,0,0-2.91,1.49c-2.73,3.38-5.36,6.84-8,10.25-1.62,2.06-3.24,4.12-4.9,6.14-1.53,1.85-3.16,3.61-4.67,5.48-2.39,3-4.72,6-7.07,9-.58.74-1.14,1.49-1.7,2.23a5.1,5.1,0,0,1,.12-2.33c1.12-3.57,2.29-7.14,3.43-10.7.39-1.21.77-2.42,1.13-3.64.73-2.5,1.41-5,2.18-7.5.86-2.81,1.8-5.59,2.67-8.4A9,9,0,0,0,661.22,169.7Zm-229.36,37c1,0,1.75.07,2.47,0,5.31-.62,10.61-1.36,15.94-1.86a2.61,2.61,0,0,0,2.65-2.19c1.52-5.2,3.24-10.34,4.61-15.58a35.9,35.9,0,0,0,.85-7.45,11.47,11.47,0,0,0-1.31-5.68c-2.31-4.71-6.18-7.05-11.31-7.43a68.88,68.88,0,0,0-19,1.38,26.79,26.79,0,0,0-16.75,11c-2.52,3.47-3.92,7.41-5.28,11.38q-6.5,18.94-12.94,37.89-5.1,15-10.07,30.06a35.21,35.21,0,0,0-1.88,12c.1,3.7,1.25,7.11,4.21,9.56A18.41,18.41,0,0,0,394.43,284a48.56,48.56,0,0,0,21.05-2.53,28,28,0,0,0,14.12-10.82,45.7,45.7,0,0,0,5.32-11.15q2.9-9,5.55-18.06c.57-1.9.29-2.12-1.71-2q-8.24.38-16.46.79a11.07,11.07,0,0,0-1.63.24c-.13.37-.25.68-.35,1-1.45,4.45-2.82,8.92-4.36,13.33a57.71,57.71,0,0,1-2.89,6.71c-1.56,3.15-3.59,4.05-7,3.35-1.83-.38-2.46-1-2.34-2.95a19.72,19.72,0,0,1,.81-4.17c1.38-4.53,2.83-9.05,4.27-13.56,5.4-16.9,10.77-33.81,16.23-50.69a55.18,55.18,0,0,1,2.85-6.73,6,6,0,0,1,4.28-3.43c2.84-.64,4.88.95,4.75,3.83a12.21,12.21,0,0,1-.36,2.4c-.38,1.59-.81,3.15-1.24,4.72-1.11,4-2.24,8.08-3.46,12.43Zm187.52-2.8c.85-2.13,1.79-4.34,2.63-6.58.76-2,1.41-4.14,2.12-6.21.4-1.13.93-2.23,1.23-3.39a19.81,19.81,0,0,0,.46-8.32c-.49-3-2-5.38-3.52-7.84a3.11,3.11,0,0,0-1.43-1.1,27.71,27.71,0,0,0-4.13-1.54,45.3,45.3,0,0,0-6-1.13,47.61,47.61,0,0,0-14.09.82,21.24,21.24,0,0,0-4.51,1.11c-4,1.75-7.9,3.72-10.89,7.08a28.26,28.26,0,0,0-4.6,5.95c-1.07,2.14-2.21,4.26-3.23,6.43a45.48,45.48,0,0,0-1.88,4.64c-.73,2.13-1.25,4.33-2,6.44-1,2.7-2.1,5.34-3.11,8-.35.92-.49,1.91-.83,2.84-.62,1.75-1.37,3.45-2,5.2-1.07,3.09-2.06,6.21-3.12,9.3-.43,1.26-1,2.47-1.43,3.73-.33,1-.43,2.09-.8,3.07-.77,2-1.66,4-2.48,6.07a25.48,25.48,0,0,0-1.2,3.19c-1.11,4.36-2.92,8.48-4.41,12.71a36.54,36.54,0,0,0-2.28,8,10.91,10.91,0,0,1-.4,2.34,14.06,14.06,0,0,0-.45,6.63c.33,2.47,1.77,4.56,2.61,6.86a5.72,5.72,0,0,0,2.11,2.6,19.26,19.26,0,0,0,9.81,3.35c2.16.09,4.3,0,6.46,0a40.34,40.34,0,0,0,9.85-1.17,27.55,27.55,0,0,0,6.83-2.38c3.94-2.21,7-5.42,10.07-8.59a8.74,8.74,0,0,0,1.91-2.24c1.09-2.42,2.7-4.59,3.29-7.23a18.6,18.6,0,0,1,.66-2.32c1-3,2.11-5.9,3.16-8.85.75-2.14,1.57-4.27,2.19-6.46a37.57,37.57,0,0,0,.69-4.48c-2.26-.43-4.24-.78-6.21-1.17-3.71-.74-7.41-1.52-11.12-2.24a2.16,2.16,0,0,0-2.66,1.5s0,.05,0,.08c-.6,1.85-1.19,3.7-1.74,5.56-.65,2.24-1.19,4.51-1.9,6.73-.8,2.56-1.86,5-2.57,7.63a9.53,9.53,0,0,1-2.43,4.47c-2.59,2.59-5,2.74-7.78.31.11-2.67,1.3-5.06,2.22-7.52.52-1.37,1.29-2.66,1.76-4,1.26-3.79,2.39-7.63,3.64-11.42.56-1.7,1.34-3.33,1.9-5,1.13-3.4,2.15-6.84,3.24-10.26.71-2.24,1.55-4.44,2.15-6.71s1.71-4.41,2.12-6.81a64.62,64.62,0,0,1,2.2-7.18c.82-2.74,2.33-5.19,3-8a26.37,26.37,0,0,1,3.81-8.46,7.33,7.33,0,0,1,3.29-2.79c2.44-1,4.57.23,4.66,2.7a12.89,12.89,0,0,1-.6,2.06,30.86,30.86,0,0,1-.61,3.69c-.88,2.73-2,5.39-2.9,8.1-.55,1.55-1,3.13-1.62,5.07ZM737,211.36H717.33c.58-3.74,2.42-7,3.58-10.51s2.57-7.13,3.9-10.8c7,.09,13.92.13,20.68,0,.45-1.65.77-3,1.19-4.31.24-.76.68-1.44,1-2.19,1-2.69,2-5.4,2.92-8.1.51-1.44,1-2.89,1.54-4.45-1.55-.14-3-.36-4.35-.37-9-.08-18-.1-27.06-.16-3.18,0-6.36-.1-9.54-.15a1.16,1.16,0,0,0-1.37.91.88.88,0,0,0,0,.17,30.81,30.81,0,0,1-1,3.4c-.16.5-.35,1-.48,1.51-.48,1.87-.82,3.79-1.42,5.61-1,2.88-2.36,5.64-3.07,8.57-.62,2.46-1.36,4.89-2.22,7.27-1.26,3.58-2.23,7.25-3.35,10.87-.56,1.82-1.15,3.62-1.76,5.43a38.19,38.19,0,0,0-1.89,5.71,27.67,27.67,0,0,1-1.42,4.53c-.75,2.22-1.59,4.41-2.28,6.65s-1.16,4.38-1.83,6.55c-.29,1-.91,1.8-1.2,2.75-.85,2.74-1.7,5.48-2.39,8.27-.72,2.95-2,5.68-3,8.55-1.16,3.6-2,7.31-3.38,10.83-.25.61-.25,1.32-.48,1.94-.47,1.3-1.09,2.55-1.53,3.87-.68,2.08-1.3,4.19-1.87,6.31a13.67,13.67,0,0,0-.22,2.47h2.27l8.13.09,29.89.32a2.26,2.26,0,0,0,1-.07,2,2,0,0,0,1-.89c.39-1,.61-2,.94-3.06.9-2.77,1.78-5.56,2.74-8.32.63-1.82,1.42-3.58,2-5.4a10.16,10.16,0,0,0,.25-2.13c-3.88-.13-7.48-.1-11-.43s-7.14.37-10.76-.82c.69-1.58,1.39-3,1.92-4.49.77-2.15,1.29-4.38,2.14-6.49,1.79-4.46,2.84-9.19,5-13.51.77-1.54,1.24-3.22,1.87-4.86h7c3,0,6,0,8.95.09.85,0,1.66-.06,2.06-1,.54-1.22,1.14-2.42,1.56-3.69.48-1.45.65-3,1.2-4.44A69.39,69.39,0,0,0,737,211.36ZM546.47,168.51c-12.3,37.87-24.62,75.41-35.9,113.43l18.19.48c1.86-4.21,36.57-111.94,36.56-113.53Z" transform="translate(-24.24 -45.86)"/><path class="cls-1" d="M330.7,185.9c1.52-1,2.71-1.62,3.77-2.44,4.56-3.5,3.57-8.93-.61-11.51a17.89,17.89,0,0,0-9.15-2.32c-4-.13-7.86.34-11.21,2.84a13.3,13.3,0,0,0-4.71,6.48c-1.22,3.6,0,7.2,3.31,9.7A53.72,53.72,0,0,0,319,193c5.23,2.77,10.37,5.68,14.53,10,2.54,2.62,4.84,5.47,7.2,8.27a3.66,3.66,0,0,0,2.24,1.58c4.44.65,7.86,3.25,11,6.15,6.35,5.86,10.26,13.23,12.8,21.39a57,57,0,0,1,1.31,5.93,8.74,8.74,0,0,1-.14,1.91,36.79,36.79,0,0,0-10.47-5.76c.27,1.77.46,3.23.72,4.67,1,5.66.3,11.2-1.08,16.71a28,28,0,0,1-7.78,13.81l-1.05,1a3.69,3.69,0,0,1-.79.27c-.73-4.28-1.41-8.55-4-12.48a26.19,26.19,0,0,1-1.56,2.28c-1.81,2.28-3.51,4.67-5.5,6.78-5.17,5.48-11.68,8.48-19,9.74a29.54,29.54,0,0,1-3.26.18c.68-2.84,1.3-5.43,2-8.39-1.79.62-3.21,1-4.54,1.59-6,2.67-12.44,3.68-18.86,4.77-6.92,1.18-13.91,1.28-20.88,1.4-6.56.12-12.91-1.39-19.17-3.27a60.43,60.43,0,0,1-14.18-6,35.8,35.8,0,0,1-9.89-8.66c-.41-.52-.87-1-1.38-1.59a6.31,6.31,0,0,0-.84.71C220.3,273.46,212,277.23,203,279.74c-5.51,1.52-11.15,1.5-16.77,1.13a97.23,97.23,0,0,1-18.64-3.07,25.41,25.41,0,0,1-12.69-8.07c-3.06-3.48-5.33-7.66-5.59-12.41a46.06,46.06,0,0,1,.85-9.07,62.57,62.57,0,0,1,1.5-6.33,38,38,0,0,0,1-11.5,8.08,8.08,0,0,0-5.71-7.13,19.43,19.43,0,0,0-6.83-.65A3.2,3.2,0,0,0,136.9,225c-2.7,7.16-5.5,14.29-8.2,21.46q-6,16-11.94,32c-.67,1.79-.68,1.79-2.62,1.8l-50.48.29h-2.5c.23-.76.36-1.32.56-1.84,2.55-6.43,5.18-12.82,7.66-19.27q9-23.44,17.87-46.93c2.58-6.85,5.09-13.73,7.34-20.69A73.15,73.15,0,0,0,97,180.52c.67-4.34-1.77-7.11-5.87-7.88C84.52,171.4,78,171.7,72,175.21a38.57,38.57,0,0,0-10.43,9.58,40.47,40.47,0,0,0-6.12,11.65c-.58,1.59-1.07,3.21-1.58,4.83a21.28,21.28,0,0,0-.44,11,11.24,11.24,0,0,0,3.42,6.11c2.24,2.06,4.73,3.13,7.89,2.25a5.43,5.43,0,0,1-.38,4.16,15.61,15.61,0,0,1-6.49,7.1,23,23,0,0,1-15.7,2.76,17,17,0,0,1-8.71-4.58A28.56,28.56,0,0,1,25.85,219a24.27,24.27,0,0,1,2.83-22.7A70.64,70.64,0,0,1,45.9,178.56a145.27,145.27,0,0,1,25.79-15c2.28-1,4.67-1.83,7-2.74.36-.14.69-.33,1-.48l-7-6.05A56.93,56.93,0,0,1,62.2,141.93c-4.31-6.64-7.92-13.59-9.88-21.29A73.07,73.07,0,0,1,50.1,96.85a66.31,66.31,0,0,1,7.55-25.56,55.41,55.41,0,0,1,17.58-20A31.28,31.28,0,0,1,90,46a17.19,17.19,0,0,1,15.08,5.47A24.89,24.89,0,0,1,112,65c.74,4.8-.89,8.94-3.63,12.73a17.42,17.42,0,0,1-6,4.84c-1,.56-2,1.08-3.08,1.57C91.19,88,85.82,94.35,82.65,102.7c-4.11,10.82-4,21.75-1,32.77.42,1.54,1,3.05,1.49,4.57h.47c.09-.39.22-.78.27-1.17,1-7.19,1.59-14.43,3.54-21.45,4.37-15.74,13.88-27.73,27.14-36.91a50.88,50.88,0,0,1,14.79-6.63,18.07,18.07,0,0,1,7.88-.21c5.42.81,10.4,2.6,14.27,6.69A8.83,8.83,0,0,1,153.34,83a22.72,22.72,0,0,1-1.55,20.9c-2.4,4-6.29,6.11-10.81,6.87a64,64,0,0,1-7.7.64,45.6,45.6,0,0,0-22,6.51c-6.61,4-11.15,9.59-12.93,17.23a6.66,6.66,0,0,0-.18,2.31,5.63,5.63,0,0,0,.67-1,31.48,31.48,0,0,1,12.3-13.74,23.75,23.75,0,0,1,2.83-1.58,65,65,0,0,1,22.31-5.87c6.56-.52,12.56.91,17.43,5.62a12.48,12.48,0,0,1,2.48,3.42c4.74,9.65.79,19.21-5.82,24.46a9.16,9.16,0,0,1-3.42,1.7A20.41,20.41,0,0,1,132.89,149c-4.4-2.13-9.19-2.61-14-2.9-6.72-.39-12.29,2.27-17.5,6.05A7.09,7.09,0,0,0,98.14,157a10.73,10.73,0,0,0,1.65-.08c11.76-1.57,22.94,0,33.53,5.63,8.92,4.72,14,12,15.11,21.94a29.87,29.87,0,0,1-.4,6.26c-.61,6.12-2.79,11.86-4.42,17.72-.22.78-.45,1.56-.73,2.56a13.15,13.15,0,0,0,1.4-.22c5.43-1.62,9.94-4.82,14.35-8.27,5.93-4.63,10.76-10.28,15.49-16.06,4-4.93,8.07-9.88,12.42-14.53a71.69,71.69,0,0,1,8.93-7.67,40.74,40.74,0,0,1,14.94-6.73,30.26,30.26,0,0,1,18.77,1.32,15.81,15.81,0,0,1,9.73,10.82c2.53,8.91.44,16.88-5.62,23.81a40.17,40.17,0,0,1-4.2,3.84c-.64.51-1.31,1-2,1.44-.11-1.81-.08-3.41-.32-5-.91-5.82-7.18-10.13-11.34-10.65a11.86,11.86,0,0,0-7.62,1.72c-3.42,2.06-6.79,4.23-10,6.61-5.06,3.76-9.92,7.78-14.95,11.59a59.47,59.47,0,0,1-14.53,8.09c-.63.24-1.24.54-1.84.84-.1.05-.16.19-.34.45.65.23,1.25.48,1.87.66a54.58,54.58,0,0,1,16.51,7.69,28.71,28.71,0,0,1,7.47,7.11,27.62,27.62,0,0,1,3,5.29c1.7,4.35,3.18,8.79,4.72,13.2a24.15,24.15,0,0,0,4.51,8.34c3.5,4,7.72,4.26,12.43,2.95a8.17,8.17,0,0,0,5.35-4.9,36.64,36.64,0,0,0,1.66-4.57,40.91,40.91,0,0,1,6.24-13.15,18.85,18.85,0,0,1,6.51-5.39c10-5.18,19.43-2.17,26.07,4a15,15,0,0,1,1.12,1.27c-.93.53-1.77.94-2.55,1.46a18.89,18.89,0,0,0-8,11.59c-1.48,5.84-.54,11.17,3.35,15.86A15.3,15.3,0,0,0,259,266.4a27.78,27.78,0,0,0,14.16,5.66c7.5.74,14.81.15,21.56-3.4a24.78,24.78,0,0,0,13.14-16.48c.85-3.4-.08-6.61-1.06-9.78-1.95-6.3-6.16-10.86-11.46-14.59-4.66-3.28-9.27-6.62-13.79-10.08a45.13,45.13,0,0,1-10.89-12.27,24.93,24.93,0,0,1-3.42-17.19,27.54,27.54,0,0,1,3.41-9.28,39.15,39.15,0,0,1,14.78-14.76c6.29-3.73,13.13-5.69,20.2-7.15a100.28,100.28,0,0,1,15.92-1.9c9.89-.42,19.5.7,28.35,5.62a25.2,25.2,0,0,1,8,6.81c2.37,3.13,2.84,6.78,2.38,10.63-.76,6.25-6.77,12.52-14,13.37a17.66,17.66,0,0,1-13.71-3.77A15.75,15.75,0,0,1,330.7,185.9Z" transform="translate(-24.24 -45.86)"/><path class="cls-1" d="M819.07,171c-1.1,2.81-2.16,5.4-3.1,8-.27.73,0,1.65-.32,2.37-1.26,3.17-1.46,6.69-3.25,9.69-.25.43-.15,1.06-.32,1.57-.61,1.84-1.32,3.65-1.88,5.5-.79,2.61-1.47,5.25-2.22,7.87q-.84,3-1.74,5.92c-1.17,3.85-2.31,7.71-3.57,11.53a36.81,36.81,0,0,0-1.22,4.61,27.4,27.4,0,0,1-1,2.8c-.79,2.48-1.53,5-2.29,7.46-.91,3-1.82,6-2.75,8.92s-1.79,5.75-2.65,8.63c-1.13,3.77-2.22,7.54-3.34,11.31a27.54,27.54,0,0,1-.9,2.65c-1.07,2.59-1.29,5.45-2.68,8a15.08,15.08,0,0,0-.8,3.31c-.43,1.58-1.06,2.15-2.7,2.21s-3.24-.11-4.85-.13h-6.92a8.9,8.9,0,0,1-1.36-.19c-1.36-17.07-1.14-34.1-2-51.07h-.5c-.29,1.19-.55,2.38-.87,3.55a14.42,14.42,0,0,1-.94,2.85c-1.47,2.82-1.74,6-2.83,8.93s-1.39,5.86-2.75,8.61a22.28,22.28,0,0,0-1.07,4c-.16.58-.4,1.14-.59,1.72-1.28,3.87-2.6,7.73-3.83,11.61-1,3.24-1.94,6.51-3,10H731.25a3.16,3.16,0,0,1-1-.32c.81-3.13,1.53-6.18,2.39-9.18.37-1.27,1.08-2.43,1.56-3.68.33-.86.49-1.79.77-2.67.76-2.35,1.57-4.69,2.31-7.05.6-1.9,1.08-3.85,1.7-5.75,1.18-3.68,2.46-7.32,3.62-11,.44-1.38.56-2.86,1-4.25s1.06-2.59,1.46-3.92c.59-2,1-4,1.58-6,.68-2.18,1.56-4.29,2.3-6.46.79-2.34,1.47-4.73,2.27-7.07,1-3.08,1.46-6.39,3.16-9.26a3.2,3.2,0,0,0,.25-1c.72-3.83,2.27-7.39,3.4-11.09,1-3.34,2.24-6.62,3.13-10,.47-1.78.94-3.6,1.53-5.33a65.5,65.5,0,0,0,2.1-7c.28-1.35,1-1.88,2.49-1.87,2.16,0,4.32.22,6.48.3,1.83.06,3.67,0,5.5.1,2.18.07,2.56.4,2.48,2.51-.17,4.57,0,9.14.25,13.71.16,3.32.41,6.64.51,10,.13,4.44.11,8.89.25,13.33.1,3.35.35,6.69.53,10l.4.09a32.53,32.53,0,0,0,1.7-4.36c1.35-5.45,3.2-10.74,5-16,.63-1.89,1-3.85,1.61-5.76.33-1.16.72-2.3,1.11-3.44.15-.44.43-.84.58-1.29.79-2.48,1.55-5,2.33-7.45,1-3.12,1.94-6.24,2.94-9.35.61-1.87.68-1.92,2.54-1.92h15A24.87,24.87,0,0,1,819.07,171Z" transform="translate(-24.24 -45.86)"/><path class="cls-1" d="M485,212.12c3.5.18,6.6.32,9.7.51,1,.06,1.25-.65,1.48-1.36,1-3,1.91-5.93,2.86-8.9q5.15-16.17,10.3-32.33a9.75,9.75,0,0,0,.32-1,1.48,1.48,0,0,1,1.63-1.31h8.44c3.39.06,6.77.21,10.49.33q-18.42,57.63-36.88,115H473c5.24-16.4,10.41-32.61,15.65-49H477.3c-1.28,4.09-2.54,8.16-3.81,12.22l-10.8,34.52c-.73,2.35-.74,2.38-3.27,2.35q-7.83-.09-15.66-.24c-1.06,0-2.11-.19-3.4-.32.2-.9.31-1.54.5-2.16l26.61-83.88q4.23-13.37,8.44-26.74c.76-2.41.79-2.4,3.26-2.33l17.09.49c.52,0,1.05.11,1.68.17C493.65,182.74,489.38,197.21,485,212.12Z" transform="translate(-24.24 -45.86)"/><path class="cls-1" d="M661.22,169.7a8.48,8.48,0,0,1-.11,1.67c-.87,2.81-1.81,5.59-2.67,8.4-.77,2.49-1.45,5-2.18,7.5-.36,1.22-.74,2.43-1.13,3.64-1.14,3.56-2.31,7.13-3.43,10.7a5.1,5.1,0,0,0-.12,2.33c.56-.74,1.12-1.49,1.7-2.23,2.35-3,4.68-6,7.07-9,1.51-1.87,3.14-3.63,4.67-5.48s3.28-4.08,4.9-6.14c2.69-3.41,5.32-6.87,8.05-10.25a3.41,3.41,0,0,1,2.91-1.49c6.09.21,12.2.3,18.3.44a6.7,6.7,0,0,1,1.09.28c-.74,1-1.35,1.81-2,2.62-.77,1-1.56,2-2.34,3l-4.67,6c-1.69,2.18-3.35,4.39-5.06,6.55-2.29,2.88-4.63,5.72-6.92,8.6s-4.45,5.72-6.72,8.55c-1.71,2.13-3.51,4.18-5.24,6.3-.46.56-.79,1.23-1.23,1.81-1.23,1.58-2.43,3.2-3.77,4.69a4.09,4.09,0,0,0-1.12,3.28c.18,2.87,0,5.78.34,8.64a56,56,0,0,1,.27,9.16,42.06,42.06,0,0,0,.47,5c.14,2,0,4,.29,6,.37,2.94-.31,5.92.11,8.76.74,5,.26,10,.85,14.89.21,1.78.06,3.6.15,5.4a19.86,19.86,0,0,0,.36,2.16,16.68,16.68,0,0,1,0,2l-21.89-.6c-.81-11.76-1.61-23.45-2.41-35.14l-.54-.16a51,51,0,0,0-3.43,4.58c-1.28,2.11-1.7,4.58-2.42,6.93s-1.46,4.56-2.15,6.86c-.76,2.57-1.48,5.16-2.21,7.74s-1.39,5-2.12,7.53c-.44,1.48-.88,1.84-2.26,1.83q-8.65,0-17.3-.1c-.33,0-.66-.08-1.17-.14.09-.74.21-1.47.37-2.2.65-2.29,1.31-4.57,2-6.82.44-1.31,1.1-2.55,1.57-3.86a30.48,30.48,0,0,0,1-3.38,91.21,91.21,0,0,1,3.57-11.66,39.54,39.54,0,0,0,2.28-8.55,6.47,6.47,0,0,1,.9-2.4c1.49-2.54,1.59-5.5,2.63-8.18,1.1-2.85,2-5.78,2.85-8.72,1.06-3.81,2.39-7.53,3.63-11.27.89-2.7,1.51-5.48,2.31-8.21.39-1.34,1-2.62,1.35-3.95.59-2,1.06-4.11,1.64-6.15.31-1.09.74-2.14,1.12-3.21q2.51-7,4.35-14.13c.84-3.24,2-6.38,3-9.57.24-.73.82-.82,1.46-.82h11Z" transform="translate(-24.24 -45.86)"/><path class="cls-1" d="M431.86,206.71c1.22-4.35,2.35-8.39,3.47-12.43.43-1.57.86-3.13,1.24-4.72a12.21,12.21,0,0,0,.36-2.4c.13-2.88-1.91-4.47-4.75-3.83a6,6,0,0,0-4.28,3.43,55.18,55.18,0,0,0-2.85,6.73c-5.46,16.88-10.83,33.79-16.23,50.69-1.44,4.51-2.89,9-4.27,13.56a19.72,19.72,0,0,0-.81,4.17c-.12,1.91.51,2.57,2.34,2.95,3.4.7,5.43-.2,7-3.35A57.9,57.9,0,0,0,416,254.8c1.54-4.41,2.91-8.88,4.36-13.33.1-.31.22-.62.35-1,.58-.09,1.1-.21,1.63-.24q8.24-.4,16.46-.79c2-.09,2.28.13,1.71,2q-2.67,9.06-5.55,18.06a45.7,45.7,0,0,1-5.32,11.15,28,28,0,0,1-14.12,10.82A48.61,48.61,0,0,1,394.43,284,18.39,18.39,0,0,1,384,279.78c-3-2.45-4.11-5.86-4.21-9.56a35.21,35.21,0,0,1,1.88-12q4.95-15.06,10.07-30.06,6.42-19,12.94-37.89c1.36-4,2.76-7.91,5.28-11.38a26.79,26.79,0,0,1,16.75-11,68.88,68.88,0,0,1,19-1.38c5.13.38,9,2.72,11.31,7.43a11.47,11.47,0,0,1,1.31,5.68,35.9,35.9,0,0,1-.85,7.45c-1.37,5.24-3.09,10.38-4.61,15.58a2.61,2.61,0,0,1-2.65,2.19c-5.33.5-10.63,1.24-15.94,1.86A23.76,23.76,0,0,1,431.86,206.71Z" transform="translate(-24.24 -45.86)"/><path class="cls-1" d="M619.38,203.91l-20.79,2.77c.61-1.94,1.07-3.52,1.62-5.07.95-2.71,2-5.37,2.9-8.1a30.86,30.86,0,0,0,.61-3.69c.13-.7.62-1.38.6-2.06-.09-2.47-2.22-3.68-4.66-2.7a7.33,7.33,0,0,0-3.29,2.79,26.37,26.37,0,0,0-3.81,8.46c-.72,2.82-2.23,5.27-3,8a64.62,64.62,0,0,0-2.2,7.18c-.41,2.4-1.51,4.51-2.12,6.81s-1.44,4.47-2.15,6.71c-1.09,3.42-2.11,6.86-3.24,10.26-.56,1.7-1.34,3.33-1.9,5-1.25,3.79-2.38,7.63-3.64,11.42-.47,1.39-1.24,2.68-1.76,4.05-.92,2.46-2.11,4.85-2.22,7.52,2.82,2.43,5.19,2.28,7.78-.31a9.53,9.53,0,0,0,2.43-4.47c.71-2.58,1.77-5.07,2.57-7.63.71-2.22,1.25-4.49,1.9-6.73.55-1.86,1.14-3.71,1.74-5.56a2.16,2.16,0,0,1,2.6-1.6l.08,0c3.71.72,7.41,1.5,11.12,2.24,2,.39,4,.74,6.21,1.17a37.57,37.57,0,0,1-.69,4.48c-.62,2.19-1.44,4.32-2.19,6.46-1,2.95-2.12,5.9-3.16,8.85a18.6,18.6,0,0,0-.66,2.32c-.59,2.64-2.2,4.81-3.29,7.23a8.74,8.74,0,0,1-1.91,2.24c-3.09,3.17-6.13,6.38-10.07,8.59a27.55,27.55,0,0,1-6.83,2.38,40.34,40.34,0,0,1-9.85,1.17c-2.16,0-4.3.14-6.46.05a19.26,19.26,0,0,1-9.81-3.35,5.72,5.72,0,0,1-2.11-2.6c-.84-2.3-2.28-4.39-2.61-6.86a14.06,14.06,0,0,1,.45-6.63,10.91,10.91,0,0,0,.4-2.34,36.54,36.54,0,0,1,2.28-8c1.49-4.23,3.3-8.35,4.41-12.71a25.48,25.48,0,0,1,1.2-3.19c.82-2,1.71-4,2.48-6.07.37-1,.47-2.07.8-3.07.42-1.26,1-2.47,1.43-3.73,1.06-3.09,2-6.21,3.12-9.3.61-1.75,1.36-3.45,2-5.2.34-.93.48-1.92.83-2.84,1-2.68,2.15-5.32,3.11-8,.76-2.11,1.28-4.31,2-6.44a45.48,45.48,0,0,1,1.88-4.64c1-2.17,2.16-4.29,3.23-6.43a28.26,28.26,0,0,1,4.6-5.95c3-3.36,6.88-5.33,10.89-7.08a21.24,21.24,0,0,1,4.51-1.11,47.61,47.61,0,0,1,14.09-.82,45.3,45.3,0,0,1,6,1.13,27.3,27.3,0,0,1,4.13,1.54,3.11,3.11,0,0,1,1.43,1.1c1.49,2.46,3,4.85,3.52,7.84a19.81,19.81,0,0,1-.46,8.32c-.3,1.16-.83,2.26-1.23,3.39-.71,2.07-1.36,4.16-2.12,6.21C621.17,199.57,620.23,201.78,619.38,203.91Z" transform="translate(-24.24 -45.86)"/><path class="cls-1" d="M737,211.36a70,70,0,0,1-3.89,12.08c-.55,1.42-.72,3-1.2,4.44a36.07,36.07,0,0,1-1.56,3.69c-.4.9-1.21,1-2.06,1q-4.47-.06-8.95-.09h-7c-.63,1.64-1.1,3.32-1.87,4.86-2.18,4.32-3.23,9-5,13.51-.85,2.11-1.37,4.34-2.14,6.49-.53,1.48-1.23,2.91-1.92,4.49,3.62,1.19,7.24.48,10.76.82s7.16.3,11,.43a10.16,10.16,0,0,1-.25,2.13c-.63,1.82-1.42,3.58-2,5.4-1,2.76-1.84,5.55-2.74,8.32-.33,1-.55,2.07-.94,3.06a2,2,0,0,1-1,.89,2.26,2.26,0,0,1-1,.07l-29.89-.32-8.13-.09H675a13.67,13.67,0,0,1,.22-2.47c.57-2.12,1.19-4.23,1.87-6.31.44-1.32,1.06-2.57,1.53-3.87.23-.62.23-1.33.48-1.94,1.41-3.52,2.22-7.23,3.38-10.83.93-2.87,2.25-5.6,3-8.55.69-2.79,1.54-5.53,2.39-8.27.29-1,.91-1.8,1.2-2.75.67-2.17,1.16-4.39,1.83-6.55s1.53-4.43,2.28-6.65a27.67,27.67,0,0,0,1.42-4.53,38.19,38.19,0,0,1,1.89-5.71c.61-1.81,1.2-3.61,1.76-5.43,1.12-3.62,2.09-7.29,3.35-10.87.86-2.38,1.6-4.81,2.22-7.27.71-2.93,2.11-5.69,3.07-8.57.6-1.82.94-3.74,1.42-5.61.13-.51.32-1,.48-1.51a30.81,30.81,0,0,0,1-3.4,1.16,1.16,0,0,1,1.22-1.1l.17,0c3.18,0,6.36.13,9.54.15,9,.06,18,.08,27.06.16,1.4,0,2.8.23,4.35.37-.54,1.56-1,3-1.54,4.45-1,2.7-1.93,5.41-2.92,8.1-.27.75-.71,1.43-1,2.19-.42,1.32-.74,2.66-1.19,4.31-6.76.12-13.71.08-20.68,0-1.33,3.67-2.7,7.21-3.9,10.8s-3,6.77-3.58,10.51Z" transform="translate(-24.24 -45.86)"/><path class="cls-1" d="M546.47,168.51l18.85.38c0,1.59-34.7,109.32-36.56,113.53l-18.19-.48C521.85,243.92,534.17,206.38,546.47,168.51Z" transform="translate(-24.24 -45.86)"/></svg>